<svg width="632" height="210" viewBox="0 0 632 210" fill="none" xmlns="http://www.w3.org/2000/svg">
<path d="M631 173.307C620.355 170.457 617.23 168.561 606.247 165.805C585.818 160.68 575.098 158.403 540.511 153.5C523.268 151.055 502.401 150.525 473.791 149.731C420.35 148.353 384.951 153.943 369.368 155.855C348.19 158.452 321.828 164.887 301.828 170.398C282.812 175.638 262.977 183.563 226.584 198.872C197.077 208.349 165.934 209.436 153.472 209.436C86.9161 209.436 67.5723 206.527 12 192.136C80.3042 190.626 101.834 183.926 131.929 175.798C162.024 167.67 182.535 159.669 239.535 153.252C259.806 150.323 288.448 147.009 319.697 144.679C352.483 141.158 385.761 139.015 418.219 139.015C443.72 139.015 470.676 138.709 492.315 140.852C513.685 142.968 517.685 143.406 534.937 146.363C547.355 148.309 575.264 153.558 588.706 157.386C602.148 161.213 616.738 166.877 631 173.307Z" fill="#E27300"/>
<path d="M111.143 196.569C110.961 195.634 111.57 194.712 112.496 194.491C177.493 178.993 215.524 169.842 253.371 165.212C254.885 165.027 256.684 165.482 256.961 166.983C257.055 167.494 256.955 168.013 256.447 168.422C254.919 169.654 168.624 183.672 113.273 197.928C112.296 198.18 111.335 197.558 111.143 196.569Z" fill="#FFBE3C"/>
<path d="M5.24166 103.28C9.81463 105.653 14.4307 107.443 19.09 108.651C23.7492 109.859 27.8692 110.463 31.4499 110.463C35.0738 110.463 37.7054 109.902 39.3448 108.781C41.0273 107.616 41.8686 106.063 41.8686 104.121C41.8686 102.957 41.545 101.943 40.8979 101.08C40.2076 100.217 39.2154 99.3758 37.9211 98.5561C36.67 97.6933 33.0246 95.8814 26.9848 93.1203C20.9451 90.3593 16.6094 87.8571 13.9778 85.6138C8.54196 80.9545 5.82406 74.6559 5.82406 66.7179C5.82406 58.7799 8.67139 52.6107 14.366 48.2103C20.1038 43.8099 27.9555 41.6097 37.9211 41.6097C46.6788 41.6097 55.6737 43.6589 64.906 47.7573L57.8524 65.4884C49.9144 61.8645 43.0334 60.0526 37.2093 60.0526C34.362 60.0526 32.2265 60.5487 30.8028 61.5409C29.3792 62.5332 28.6673 63.8706 28.6673 65.5531C28.6673 67.1924 29.5302 68.6808 31.2558 70.0182C33.0246 71.3556 37.6407 73.7283 45.1041 77.1365C52.5676 80.5015 57.723 84.0822 60.5703 87.8787C63.4607 91.5888 64.906 96.3343 64.906 102.115C64.9923 110.14 61.9508 116.675 55.7816 121.723C49.6555 126.77 41.5666 129.251 31.5147 129.165C25.7769 129.165 20.9451 128.755 17.0192 127.935C13.1365 127.072 9.21065 125.692 5.24166 123.794V103.28ZM101.676 129.165C90.934 129.165 82.7587 126.274 77.1504 120.493C71.542 114.669 68.7378 106.278 68.7378 95.3205C68.7378 84.3627 71.7361 75.8854 77.7328 69.8888C83.7725 63.849 92.3576 60.8291 103.488 60.8291C111.081 60.8291 118.286 62.5116 125.102 65.8766L118.372 82.7017C112.332 80.0701 107.414 78.7543 103.617 78.7543C99.8211 78.7543 96.909 80.1995 94.8814 83.09C92.8969 85.9373 91.9046 89.971 91.9046 95.1911C91.9046 105.761 95.8089 111.045 103.617 111.045C110.261 111.045 116.668 109.104 122.837 105.221V123.341C116.927 127.223 109.873 129.165 101.676 129.165ZM195.293 128H172.385V92.0202C172.385 83.1763 169.775 78.7543 164.555 78.7543C160.759 78.7543 157.976 80.3505 156.207 83.543C154.482 86.6923 153.619 91.8477 153.619 99.0091V128H130.84V37.4034H153.619V50.2811C153.619 55.8032 153.317 62.4253 152.713 70.1476H153.748C155.905 66.8257 158.451 64.453 161.384 63.0293C164.318 61.5625 167.834 60.8291 171.932 60.8291C179.352 60.8291 185.09 62.9646 189.145 67.2356C193.244 71.4634 195.293 77.4169 195.293 85.0961V128ZM245.458 94.9323C245.458 89.065 244.703 84.7509 243.193 81.9899C241.683 79.1857 239.181 77.7836 235.686 77.7836C232.235 77.7836 229.733 79.1857 228.18 81.9899C226.67 84.7941 225.915 89.1082 225.915 94.9323C225.915 100.713 226.691 105.049 228.244 107.939C229.797 110.83 232.3 112.275 235.751 112.275C239.245 112.275 241.726 110.851 243.193 108.004C244.703 105.114 245.458 100.756 245.458 94.9323ZM268.624 94.8675C268.624 105.653 265.712 114.065 259.888 120.105C254.107 126.145 246.105 129.165 235.88 129.165C225.656 129.165 217.567 126.08 211.613 119.911C205.703 113.742 202.748 105.351 202.748 94.7381C202.748 84.1254 205.638 75.8207 211.419 69.8241C217.243 63.8274 225.397 60.8291 235.88 60.8291C245.673 60.6997 253.611 63.7843 259.694 70.0829C265.777 76.3384 268.754 84.5999 268.624 94.8675ZM316.338 94.9323C316.338 89.065 315.583 84.7509 314.073 81.9899C312.563 79.1857 310.061 77.7836 306.566 77.7836C303.115 77.7836 300.613 79.1857 299.06 81.9899C297.55 84.7941 296.795 89.1082 296.795 94.9323C296.795 100.713 297.571 105.049 299.124 107.939C300.677 110.83 303.18 112.275 306.631 112.275C310.125 112.275 312.606 110.851 314.073 108.004C315.583 105.114 316.338 100.756 316.338 94.9323ZM339.504 94.8675C339.504 105.653 336.592 114.065 330.768 120.105C324.987 126.145 316.985 129.165 306.76 129.165C296.536 129.165 288.447 126.08 282.493 119.911C276.583 113.742 273.628 105.351 273.628 94.7381C273.628 84.1254 276.518 75.8207 282.299 69.8241C288.123 63.8274 296.277 60.8291 306.76 60.8291C316.553 60.6997 324.491 63.7843 330.574 70.0829C336.657 76.3384 339.634 84.5999 339.504 94.8675ZM370.134 37.4034V128H347.355V37.4034H370.134ZM495.141 42.8392L474.175 128H446.996L438.842 90.9201C438.367 89.1082 437.742 86.0667 436.965 81.7958C436.189 77.5248 435.585 73.6205 435.153 70.0829C434.42 76.1658 433.234 82.7449 431.594 89.82L423.117 128H395.938L374.842 42.8392H397.038L406.292 85.549C408.363 94.997 409.786 102.504 410.563 108.069C411.081 104.1 411.987 98.7287 413.281 91.9555C414.575 85.1823 415.805 79.5524 416.969 75.0657L424.476 42.8392H445.766L453.079 75.0657C454.2 79.8544 455.408 85.6137 456.702 92.3438C457.997 99.0738 458.903 104.315 459.42 108.069C459.809 104.186 461.189 96.7226 463.562 85.6785L472.945 42.8392H495.141ZM556.063 128H540.338L535.938 119.264H535.485C532.508 123.017 529.38 125.606 526.102 127.029C522.866 128.453 518.746 129.165 513.742 129.165C507.486 129.165 502.59 127.288 499.052 123.535C495.514 119.782 493.746 114.562 493.746 107.875C493.746 94.3283 503.258 87.1668 522.284 86.3903L533.349 86.002V85.0961C533.349 79.6603 530.653 76.9424 525.26 76.9424C520.515 76.9424 514.41 78.5602 506.947 81.7958L500.346 66.7826C508.069 62.8136 517.775 60.8291 529.467 60.8291C537.922 60.8291 544.458 62.943 549.074 67.1709C553.734 71.3987 556.063 77.2444 556.063 84.7078V128ZM516.977 107.033C516.977 111.089 519.134 113.116 523.448 113.116C526.209 113.116 528.561 112.253 530.502 110.528C532.443 108.802 533.414 106.516 533.414 103.668V98.5561L528.172 98.7503C520.709 99.0954 516.977 101.856 516.977 107.033ZM573.812 156.667C570.792 156.667 567.686 156.344 564.493 155.697V137.771C566.607 138.246 568.808 138.483 571.094 138.483C575.322 138.483 578.558 136.995 580.801 134.018C581.923 132.551 583.13 130.243 584.425 127.094L558.411 61.9939H582.419L593.614 99.8504C594.175 101.964 594.541 104.359 594.714 107.033H595.167C595.512 104.186 595.987 101.835 596.591 99.9798L608.045 61.9939H631.276L605.197 132.206C601.832 141.093 597.712 147.392 592.837 151.102C587.962 154.812 581.621 156.667 573.812 156.667Z" fill="#02383D"/>
</svg>
